PathFileType	4	(X/Y/Z)	s01c0001.trc
DataRate	CameraRate	NumFrames	NumMarkers	Units	OrigDataRate	OrigDataStartFrame	OrigNumFrames
200	200	4	49	mm	200	0	2000
Frame#	Time	racr			lacr			c7			jug			rlel			rdr			llel			ldr			s2			lic			ric			lasi			rasi			rpsi			lpsi			rgt			lgt			rth1			rth2			rth3			rth4			rlfc			rmfc			rsh1			rsh2			rsh3			rsh4			rlmal			rmmal			rcal			rtoe			rmt5			rmt1			lth1			lth2			lth4			lth3			llfc			lmfc			lsh1			lsh2			lsh3			lsh4			llmal			lmmal			lcal			ltoe			lmt1			lmt5			
		X1	Y1	Z1	X2	Y2	Z2	X3	Y3	Z3	X4	Y4	Z4	X5	Y5	Z5	X6	Y6	Z6	X7	Y7	Z7	X8	Y8	Z8	X9	Y9	Z9	X10	Y10	Z10	X11	Y11	Z11	X12	Y12	Z12	X13	Y13	Z13	X14	Y14	Z14	X15	Y15	Z15	X16	Y16	Z16	X17	Y17	Z17	X18	Y18	Z18	X19	Y19	Z19	X20	Y20	Z20	X21	Y21	Z21	X22	Y22	Z22	X23	Y23	Z23	X24	Y24	Z24	X25	Y25	Z25	X26	Y26	Z26	X27	Y27	Z27	X28	Y28	Z28	X29	Y29	Z29	X30	Y30	Z30	X31	Y31	Z31	X32	Y32	Z32	X33	Y33	Z33	X34	Y34	Z34	X35	Y35	Z35	X36	Y36	Z36	X37	Y37	Z37	X38	Y38	Z38	X39	Y39	Z39	X40	Y40	Z40	X41	Y41	Z41	X42	Y42	Z42	X43	Y43	Z43	X44	Y44	Z44	X45	Y45	Z45	X46	Y46	Z46	X47	Y47	Z47	X48	Y48	Z48	X49	Y49	Z49	
0	0.0000	480.954834	1503.584106	-350.034241	300.101471	1482.751465	-694.248962	365.082367	1530.834473	-503.435333	500.256592	1461.867065	-564.972534	541.456421	1258.725098	-182.220245	701.511108	1066.029419	-66.053017	206.079361	1210.452148	-793.017029	216.287750	1005.309265	-962.985352	332.227814	1019.063477	-458.300293	360.237061	1088.783203	-676.187378	535.533691	1063.947144	-390.784058	413.241943	1026.487793	-677.945374	564.892212	1016.405518	-442.844971	374.436768	1050.159058	-420.629944	318.778534	1053.086670	-510.641785	508.271149	928.718506	-358.654297	330.847534	922.442139	-681.544922	531.130737	809.655884	-348.939453	537.891174	727.381653	-358.799103	532.696838	637.875854	-374.587189	575.792114	731.880920	-398.096466	503.793121	517.475037	-388.021729	444.076904	492.839478	-477.207886	489.799377	401.787872	-339.304871	484.790466	317.478363	-344.127014	469.386322	229.140289	-352.995636	509.656525	317.126831	-400.553955	447.088898	99.089058	-371.589569	447.773743	122.332710	-459.669373	393.700836	67.862610	-415.843781	651.928223	91.775597	-492.210358	581.368286	50.538174	-391.225739	561.271973	62.371414	-504.522827	316.624084	803.001526	-688.076660	337.138214	717.014648	-688.552246	387.014832	727.479126	-707.917053	353.859039	634.046509	-676.277466	362.485962	520.154114	-653.738953	390.398560	489.476349	-546.539795	304.667847	409.371826	-666.277100	303.258698	322.618408	-657.337891	304.248901	237.993683	-639.200439	365.758057	322.354492	-654.981445	317.258453	104.615501	-620.298828	382.457520	116.290077	-558.850769	304.794586	64.448997	-560.286255	543.374023	97.051109	-692.400757	498.309967	65.715645	-617.230530	426.085083	57.327839	-707.096191	
1	0.0050	481.023254	1503.593994	-350.047668	300.176270	1482.748169	-694.237244	365.160675	1530.825928	-503.361664	500.316406	1461.873413	-564.996948	541.542419	1258.761719	-182.212128	701.542664	1066.025391	-66.030502	206.119812	1210.476074	-793.051086	216.313843	1005.351501	-963.007812	332.224274	1019.074768	-458.312256	360.239075	1088.794312	-676.183960	535.527954	1063.933838	-390.773224	413.237061	1026.485474	-677.934998	564.894714	1016.399475	-442.837006	374.428650	1050.154785	-420.634277	318.782928	1053.094727	-510.647552	508.269775	928.720825	-358.633575	330.849762	922.444519	-681.523499	531.130127	809.656189	-348.938263	537.877441	727.376221	-358.791443	532.678833	637.890442	-374.569122	575.782227	731.904358	-398.102692	503.791656	517.466187	-388.008423	444.061615	492.836334	-477.206635	489.782745	401.779053	-339.279694	484.765961	317.459351	-344.136597	469.384644	229.155670	-352.984894	509.650238	317.129059	-400.555115	447.056122	99.094215	-371.589294	447.773499	122.332909	-459.662323	393.692932	67.876640	-415.834595	651.934814	91.765701	-492.219849	581.364929	50.538734	-391.236908	561.266724	62.374508	-504.519684	316.624847	803.001465	-688.075684	337.164215	717.031738	-688.525879	387.017792	727.487366	-707.914978	353.883514	634.043945	-676.272461	362.522125	520.139221	-653.731506	390.411713	489.462830	-546.549805	304.675079	409.378479	-666.293457	303.277222	322.611725	-657.338684	304.257721	238.001083	-639.193665	365.771332	322.353394	-654.986145	317.282288	104.605904	-620.293457	380.684326	115.521309	-557.064026	304.769501	64.461777	-560.273010	543.374329	97.051201	-692.404602	498.319855	65.725067	-617.223511	426.098175	57.337181	-707.110352	
2	0.0100	481.543213	1503.452026	-350.510101	300.228516	1482.779907	-694.271423	365.190186	1530.869873	-503.378815	500.345398	1461.894287	-564.983948	541.609741	1258.774780	-182.219086	701.579468	1066.028320	-66.014679	206.144699	1210.510864	-793.067444	216.326233	1005.392090	-963.023926	332.218506	1019.072815	-458.299988	360.228363	1088.806152	-676.171570	535.536743	1063.947510	-390.772430	413.232910	1026.486572	-677.944214	564.874268	1016.382690	-442.828400	374.423523	1050.155762	-420.627350	318.761292	1053.093750	-510.641235	508.241760	928.736816	-358.636658	330.850494	922.447205	-681.521240	531.118774	809.651733	-348.934601	537.891052	727.382874	-358.781494	532.685242	637.890930	-374.571960	575.772217	731.905396	-398.090332	503.783630	517.497986	-388.003479	444.086334	492.856903	-477.208282	489.770325	401.794250	-339.280426	484.775269	317.470306	-344.120422	469.396698	229.159042	-352.993134	509.651764	317.140137	-400.550049	447.103363	99.065422	-371.588989	447.779846	122.264084	-459.649323	393.692566	67.868774	-415.837738	651.938599	91.767021	-492.231445	581.379089	50.528275	-391.229828	561.277100	62.381939	-504.518860	316.612305	803.000671	-688.079224	337.177277	717.031860	-688.534363	387.013000	727.486145	-708.010132	353.895447	634.048279	-676.276917	362.543488	520.133728	-653.730835	390.472473	489.461121	-546.573669	304.693390	409.383118	-666.282227	303.291321	322.613647	-657.330688	304.435730	237.693634	-639.629395	366.336304	322.171448	-654.746704	317.261292	104.620705	-620.280151	380.684326	115.521309	-557.064026	304.764435	64.473969	-560.283936	543.393982	97.036888	-692.407288	498.306366	65.726059	-617.224426	426.095154	57.337299	-707.107117	
3	0.0150	482.045502	1503.317139	-350.955261	303.612305	1483.346313	-696.056091	365.244446	1530.873413	-503.349792	500.410583	1461.898071	-565.008118	541.668518	1258.804688	-182.207352	702.274170	1066.203369	-66.142067	206.168594	1210.549683	-793.077148	216.417313	1005.481262	-963.186890	332.206940	1019.079834	-458.290558	360.226593	1088.806763	-676.176025	535.550842	1063.911621	-390.812622	412.749969	1026.426270	-678.038635	564.884460	1016.403687	-442.819244	374.424011	1050.150635	-420.629456	318.765442	1053.094116	-510.629181	508.237305	928.731079	-358.627594	330.846161	922.448181	-681.513611	531.024597	809.521484	-348.811066	537.856567	727.385925	-358.775024	532.552979	637.945312	-374.491913	575.783081	731.907959	-398.088379	503.748474	517.497131	-387.990356	444.050781	492.845123	-477.202209	489.768860	401.794586	-339.269226	484.748016	317.468933	-344.114105	469.384277	229.157349	-352.975281	509.378723	317.136200	-400.290741	447.090332	99.098030	-371.586639	447.860382	122.195915	-459.698822	394.221527	67.481621	-415.799744	651.942566	91.766846	-492.242645	581.358826	50.546963	-391.219940	561.285156	62.388687	-504.517853	316.597504	802.999268	-688.081787	337.184082	717.039307	-688.533081	387.006866	727.486084	-708.102722	353.916656	634.050415	-676.271545	362.851074	520.300293	-653.437195	390.373749	489.572357	-546.438354	304.712250	409.386719	-666.288696	303.482849	322.626740	-657.271179	304.608002	237.396011	-640.051453	367.024384	321.874359	-654.405823	317.279724	104.616676	-620.290405	382.485687	116.291168	-558.851562	304.787689	64.452126	-560.268066	543.380127	97.050949	-692.409851	498.309509	65.707344	-617.223022	426.094208	57.343826	-707.114868	
